# xmcd
#
# Track frame offsets: 
#        150
#        1827
#        24603
#        47530
#        67335
#        89820
#        112164
#        133566
#        154502
#        180035
#        198570
#        221792
#        223631
#        244651
#        266486
#        288818
#        310781
#        334343
#        355628
#
# Disc length: 4799 seconds
#
# Revision: 0
# Processed by: cddbd v1.5.2PL0 Copyright (c) Steve Scherf et al.
# Submitted via: ExactAudioCopy v0.99pb5
#
DISCID=1812bd13
DTITLE=Charles 'Big Daddy' Stallings - Blues Party
DYEAR=2009
DGENRE=Blues
TTITLE0=Intro
TTITLE1=Blues Party
TTITLE2=Horny Bee
TTITLE3=Fine Lady
TTITLE4=Down On The Farm
TTITLE5=Swing 2010
TTITLE6=She's Gone
TTITLE7=Knocked Up!
TTITLE8=Old Folks
TTITLE9=Doggone Shame
TTITLE10=In Love By Yourself'
TTITLE11=Icon Introduction
TTITLE12=The Lucky Number
TTITLE13=James
TTITLE14=I Wanna Dance
TTITLE15=Latin Girls
TTITLE16=Old Dog
TTITLE17=Blues In Your Funk
TTITLE18=Thank You!
EXTD=
EXTT0=
EXTT1=
EXTT2=
EXTT3=
EXTT4=
EXTT5=
EXTT6=
EXTT7=
EXTT8=
EXTT9=
EXTT10=
EXTT11=
EXTT12=
EXTT13=
EXTT14=
EXTT15=
EXTT16=
EXTT17=
EXTT18=
PLAYORDER=
